<?xml version="1.0" standalone="no"?>
<!DOCTYPE svg PUBLIC "-//W3C//DTD SVG 20010904//EN"
 "http://www.w3.org/TR/2001/REC-SVG-20010904/DTD/svg10.dtd">
<svg version="1.0" xmlns="http://www.w3.org/2000/svg"
 width="332.000000pt" height="332.000000pt" viewBox="0 0 332.000000 332.000000"
 preserveAspectRatio="xMidYMid meet">

<g transform="translate(0.000000,332.000000) scale(0.100000,-0.100000)"
fill="#000000" stroke="none">
<path d="M1511 3285 c-87 -27 -144 -114 -157 -236 -5 -54 -2 -78 21 -150 41
-133 40 -136 -95 -250 -243 -205 -421 -454 -482 -675 -19 -69 -22 -104 -21
-269 0 -216 15 -310 63 -413 47 -100 93 -157 152 -186 l52 -26 623 0 c603 0
625 1 663 20 48 24 80 66 121 155 40 88 58 188 66 350 12 275 -54 498 -222
750 -100 150 -191 234 -290 265 l-39 13 -41 -47 c-48 -54 -115 -176 -143 -261
-32 -94 -62 -260 -69 -372 l-6 -103 -99 0 -98 0 0 78 c0 94 32 296 60 376 11
32 40 95 64 140 76 139 166 323 192 393 16 41 27 98 31 148 5 75 3 88 -21 141
-66 145 -185 203 -325 159z"/>
<path d="M1053 860 c-34 -14 -51 -49 -63 -130 -18 -119 25 -110 -512 -110
-433 0 -459 -1 -454 -17 6 -21 126 -561 126 -568 0 -3 267 -4 593 -3 586 3
592 3 632 25 52 28 110 90 169 180 49 75 78 103 107 103 29 0 66 -38 103 -105
51 -91 140 -181 192 -194 28 -8 229 -10 624 -9 l583 3 58 270 c32 149 61 280
64 293 l5 22 -443 0 c-352 0 -447 3 -461 13 -14 10 -19 31 -23 88 -5 95 -10
114 -29 133 -14 14 -85 16 -632 15 -339 0 -627 -4 -639 -9z"/>
</g>
</svg>
